<svg display='none' xmlns="http://www.w3.org/2000/svg">
    <symbol id='arrow' viewBox="0 0 40 40" fill='none'>
        <path d="M24.0495 9.8833L34.1662 20L24.0495 30.1166"  stroke-width="2.5" stroke-miterlimit="10" stroke-linecap="round" stroke-linejoin="round"/>
        <path d="M5.83331 20H33.8833"  stroke-width="2.5" stroke-miterlimit="10" stroke-linecap="round" stroke-linejoin="round"/>
    </symbol>

    <symbol id='facebook' viewBox="0 0 40 40" >
        <g clip-path="url(#clip0_1_1553)">
        <path d="M40 20C40 8.9543 31.0457 0 20 0C8.95431 0 0 8.9543 0 20C0 29.9826 7.31371 38.2566 16.875 39.7569V25.7812H11.7969V20H16.875V15.5938C16.875 10.5812 19.8609 7.8125 24.4293 7.8125C26.6175 7.8125 28.9062 8.20312 28.9062 8.20312V13.125H26.3843C23.8998 13.125 23.125 14.6667 23.125 16.2483V20H28.6719L27.7852 25.7812H23.125V39.7569C32.6863 38.2566 40 29.9826 40 20Z" />
        </g>
        <defs>
        <clipPath id="clip0_1_1553">
        <rect width="40" height="40" fill="white"/>
        </clipPath>
        </defs>
    </symbol>

    <symbol id='instagram' viewBox="0 0 40 40">
        <path d="M30.1408 7.57959C27.1008 7.67279 27.1016 12.0464 30.1408 12.1388C33.1808 12.0456 33.18 7.67199 30.1408 7.57959ZM20 10.2188C14.612 10.2188 10.2444 14.598 10.2444 20C10.7584 32.9748 29.2432 32.9712 29.7552 20C29.7556 14.598 25.3876 10.2188 20 10.2188ZM20 26.3492C16.5028 26.3492 13.6676 23.5064 13.6676 20C14.0012 11.578 26.0004 11.58 26.3328 20C26.3324 23.5068 23.4972 26.3492 20 26.3492Z" />
        <path d="M38.8832 12.1673C38.7424 5.50045 34.5008 1.25645 27.8324 1.11685C26.2312 0.962452 13.7696 0.959652 12.1672 1.11685C5.50042 1.25765 1.25642 5.49925 1.11682 12.1677C0.96242 13.7665 0.95922 26.2321 1.11682 27.8329C1.24122 34.4781 5.52122 38.7593 12.1672 38.8833C13.7684 39.0393 26.23 39.0393 27.8324 38.8833C29.8544 38.7909 31.2356 38.4697 32.444 38.0001C36.6788 36.3085 38.748 32.5457 38.8832 27.8325C39.0376 26.2313 39.0404 13.7697 38.8832 12.1673ZM27.6764 35.4637C26.1008 35.6141 13.9 35.6165 12.3232 35.4637C10.4712 35.3793 9.46522 35.0697 8.79562 34.8097C3.01602 32.1289 4.80802 26.7077 4.53562 19.2665C4.54162 17.5381 4.53202 14.0521 4.53602 12.3237C4.76682 7.17085 7.19362 4.78525 12.3232 4.53645C13.9008 4.38605 26.0984 4.38365 27.6764 4.53645C32.8308 4.76725 35.214 7.19405 35.4636 12.3233C35.5656 13.5549 35.6396 20.2781 35.4636 23.6805C35.6536 30.0709 35.3624 35.0889 27.6764 35.4637Z" />
    </symbol>

    <symbol id='tiktok' viewBox="0 0 40 40" >
        <path d="M32 18.0667V13.3333C29.7833 13.3333 28.0917 12.7417 27 11.5917C25.8796 10.2792 25.2519 8.61711 25.225 6.89165V6.54998L20.75 6.44165V25.6666C20.5965 26.5054 20.1893 27.277 19.5835 27.877C18.9776 28.4771 18.2022 28.8768 17.362 29.0222C16.5217 29.1676 15.6571 29.0517 14.8848 28.6902C14.1125 28.3286 13.4697 27.7388 13.0433 27.0004C12.6168 26.262 12.4272 25.4105 12.4999 24.5609C12.5727 23.7113 12.9045 22.9044 13.4503 22.2493C13.9962 21.5942 14.7299 21.1223 15.5525 20.8974C16.375 20.6725 17.2467 20.7054 18.05 20.9917V16.4083C17.5817 16.3316 17.1079 16.2926 16.6333 16.2916C14.9258 16.2916 13.2567 16.798 11.8369 17.7466C10.4172 18.6953 9.31061 20.0436 8.65718 21.6212C8.00374 23.1987 7.83277 24.9346 8.16589 26.6093C8.49901 28.284 9.32126 29.8223 10.5286 31.0297C11.736 32.2371 13.2744 33.0593 14.9491 33.3924C16.6238 33.7255 18.3596 33.5546 19.9372 32.9011C21.5147 32.2477 22.863 31.1411 23.8117 29.7214C24.7603 28.3017 25.2667 26.6325 25.2667 24.925C25.2657 24.5712 25.2435 24.2178 25.2 23.8666V16.2417C27.2349 17.5124 29.6023 18.1478 32 18.0667Z"/>
    </symbol>

    <symbol id='twitter' viewBox="0 0 40 40" >
        <path d="M38.5684 8.44876C37.2016 9.05596 35.7332 9.46436 34.192 9.64876C35.766 8.70596 36.9728 7.21356 37.5412 5.43396C36.07 6.30676 34.4392 6.94076 32.702 7.28356C31.3124 5.80236 29.3328 4.87676 27.1416 4.87676C22.2984 4.81196 18.5748 9.54356 19.7208 14.2308C13.3892 13.9136 7.77601 10.88 4.01681 6.26916C1.96521 9.61476 3.13001 14.3992 6.37521 16.4416C5.12681 16.4016 3.95121 16.0588 2.92441 15.4888C2.87681 19.2108 5.51721 22.3532 9.03601 23.0544C7.95481 23.356 6.70921 23.4032 5.59521 23.1856C6.56521 26.212 9.37881 28.416 12.7124 28.4772C9.69841 30.8856 5.47881 32.1412 1.43201 31.6324C17.7048 41.6472 35.694 28.5264 34.7652 12.392C36.2544 11.3168 37.5472 9.97556 38.5684 8.44876Z" />
    </symbol>
    <symbol id='youtube' viewBox="0 0 40 40" >
        <path d="M38.3333 16.1833C38.4158 13.7977 37.8941 11.43 36.8167 9.29997C36.0857 8.42597 35.0712 7.83616 33.95 7.63331C29.3125 7.21252 24.6559 7.04005 20 7.11664C15.3611 7.03657 10.7212 7.20347 6.1 7.61664C5.18637 7.78283 4.34087 8.21138 3.66667 8.84997C2.16667 10.2333 2 12.6 1.83334 14.6C1.59152 18.1959 1.59152 21.804 1.83334 25.4C1.88155 26.5256 2.04916 27.643 2.33334 28.7333C2.5343 29.5751 2.94088 30.3539 3.51667 31C4.19545 31.6724 5.06064 32.1253 6 32.3C9.5932 32.7435 13.2137 32.9273 16.8333 32.85C22.6667 32.9333 27.7833 32.85 33.8333 32.3833C34.7958 32.2194 35.6853 31.7659 36.3833 31.0833C36.8499 30.6165 37.1985 30.0451 37.4 29.4166C37.9961 27.5877 38.2888 25.6735 38.2667 23.75C38.3333 22.8166 38.3333 17.1833 38.3333 16.1833ZM16.2333 24.75V14.4333L26.1 19.6166C23.3333 21.15 19.6833 22.8833 16.2333 24.75Z" />
    </symbol>
</svg>