<svg width="40" height="40" viewBox="0 0 40 40" fill="none" xmlns="http://www.w3.org/2000/svg">
<path d="M38.5684 8.44876C37.2016 9.05596 35.7332 9.46436 34.192 9.64876C35.766 8.70596 36.9728 7.21356 37.5412 5.43396C36.07 6.30676 34.4392 6.94076 32.702 7.28356C31.3124 5.80236 29.3328 4.87676 27.1416 4.87676C22.2984 4.81196 18.5748 9.54356 19.7208 14.2308C13.3892 13.9136 7.77601 10.88 4.01681 6.26916C1.96521 9.61476 3.13001 14.3992 6.37521 16.4416C5.12681 16.4016 3.95121 16.0588 2.92441 15.4888C2.87681 19.2108 5.51721 22.3532 9.03601 23.0544C7.95481 23.356 6.70921 23.4032 5.59521 23.1856C6.56521 26.212 9.37881 28.416 12.7124 28.4772C9.69841 30.8856 5.47881 32.1412 1.43201 31.6324C17.7048 41.6472 35.694 28.5264 34.7652 12.392C36.2544 11.3168 37.5472 9.97556 38.5684 8.44876Z" fill="white"/>
</svg>
