<svg width="40" height="40" viewBox="0 0 40 40" fill="none" xmlns="http://www.w3.org/2000/svg">
<path d="M30.1408 7.57959C27.1008 7.67279 27.1016 12.0464 30.1408 12.1388C33.1808 12.0456 33.18 7.67199 30.1408 7.57959ZM20 10.2188C14.612 10.2188 10.2444 14.598 10.2444 20C10.7584 32.9748 29.2432 32.9712 29.7552 20C29.7556 14.598 25.3876 10.2188 20 10.2188ZM20 26.3492C16.5028 26.3492 13.6676 23.5064 13.6676 20C14.0012 11.578 26.0004 11.58 26.3328 20C26.3324 23.5068 23.4972 26.3492 20 26.3492Z" fill="white"/>
<path d="M38.8832 12.1673C38.7424 5.50045 34.5008 1.25645 27.8324 1.11685C26.2312 0.962452 13.7696 0.959652 12.1672 1.11685C5.50042 1.25765 1.25642 5.49925 1.11682 12.1677C0.96242 13.7665 0.95922 26.2321 1.11682 27.8329C1.24122 34.4781 5.52122 38.7593 12.1672 38.8833C13.7684 39.0393 26.23 39.0393 27.8324 38.8833C29.8544 38.7909 31.2356 38.4697 32.444 38.0001C36.6788 36.3085 38.748 32.5457 38.8832 27.8325C39.0376 26.2313 39.0404 13.7697 38.8832 12.1673ZM27.6764 35.4637C26.1008 35.6141 13.9 35.6165 12.3232 35.4637C10.4712 35.3793 9.46522 35.0697 8.79562 34.8097C3.01602 32.1289 4.80802 26.7077 4.53562 19.2665C4.54162 17.5381 4.53202 14.0521 4.53602 12.3237C4.76682 7.17085 7.19362 4.78525 12.3232 4.53645C13.9008 4.38605 26.0984 4.38365 27.6764 4.53645C32.8308 4.76725 35.214 7.19405 35.4636 12.3233C35.5656 13.5549 35.6396 20.2781 35.4636 23.6805C35.6536 30.0709 35.3624 35.0889 27.6764 35.4637Z" fill="white"/>
</svg>
